HIERARCHY
ROOT pelvis
{
  OFFSET 0 100 0
  CHANNELS 6 Xposition Yposition Zposition Zrotation Xrotation Yrotation
  JOINT pelvis_right_femur
  {
    OFFSET -10.78128 -3.44521 -0.5502486
    CHANNELS 3 Zrotation Xrotation Yrotation
    JOINT right_femur_tibia
    {
      OFFSET -0.8047443 -44.0398 -0.1307829
      CHANNELS 3 Zrotation Xrotation Yrotation
      JOINT right_tibia_foot
      {
        OFFSET 3.006224 -47.83518 -5
        CHANNELS 3 Zrotation Xrotation Yrotation
        End Site
        {
          OFFSET 0 -5 15
        }
      }
    }
  }
  JOINT pelvis_left_femur
  {
    OFFSET 10.78128 -3.44521 -0.5502486
    CHANNELS 3 Zrotation Xrotation Yrotation
    JOINT left_femur_tibia
    {
      OFFSET 0.8047443 -44.0398 -0.1307829
      CHANNELS 3 Zrotation Xrotation Yrotation
      JOINT left_tibia_foot
      {
        OFFSET -4.370144 -48.10324 -4.275266
        CHANNELS 3 Zrotation Xrotation Yrotation
        End Site
        {
          OFFSET 0 -5 15
        }
      }
    }
  }
  JOINT pelvis_spine1
  {
    OFFSET 0 6.468898 -3.129235
    CHANNELS 3 Zrotation Xrotation Yrotation
    JOINT spine1
    {
      OFFSET 0 23.15396 4.99043
      CHANNELS 3 Zrotation Xrotation Yrotation
      JOINT spine2
      {
        OFFSET 0 20.79997 -5.064912
        CHANNELS 3 Zrotation Xrotation Yrotation
        JOINT neck
        {
          OFFSET 0 14.38658 9.616178
          CHANNELS 3 Zrotation Xrotation Yrotation
          End Site
          {
            OFFSET 0 20 0
          }
        }
      }
      JOINT right_manubrium
      {
        OFFSET -5.722621 16.35077 3.967754
        CHANNELS 3 Zrotation Xrotation Yrotation
        JOINT right_clavicle
        {
          OFFSET -13.16364 1.694482 -4.693211
          CHANNELS 3 Zrotation Xrotation Yrotation
          JOINT right_humerus
          {
            OFFSET -28.5034 -0.3100689 -2.792744
            CHANNELS 3 Zrotation Xrotation Yrotation
            JOINT right_radius
            {
              OFFSET -25.15693 0.02248979 -1.271978
              CHANNELS 3 Zrotation Xrotation Yrotation
              End Site
              {
                OFFSET -15 0 0
              }
            }
          }
        }
      }
      JOINT left_manubrium
      {
        OFFSET 5.722621 16.35077 3.967754
        CHANNELS 3 Zrotation Xrotation Yrotation
        JOINT left_clavicle
        {
          OFFSET 13.16364 1.694482 -4.693211
          CHANNELS 3 Zrotation Xrotation Yrotation
          JOINT left_humerus
          {
            OFFSET 29.39168 -1.063119 -2.237045
            CHANNELS 3 Zrotation Xrotation Yrotation
            JOINT left_radius
            {
              OFFSET 24.59957 -0.9528479 0.9047498
              CHANNELS 3 Zrotation Xrotation Yrotation
              End Site
              {
                OFFSET 15 -0 -0
              }
            }
          }
        }
      }
    }
  }
}
MOTION
Frames: 20
Frame Time: 0.0416666666667
0 103.5113 0 0.9888419 -1.984438 -0.1477073 3.490225 -13.36803 9.766868 -8.595319e-10 34.99653 4.724592e-10 -6.737941 -16.89841 -4.51868 -6.784266 6.909196 -22.45906 5.733447e-10 6.016215 -1.457218e-09 8.378718 -17.35804 28.56155 -4.214515 -2.853965 4.655227 2.533177 9.539438 -7.561687 1.38117 22.46292 6.685683 3.352709 -23.46858 8.80705 6.533808 -20.30124 11.67431 84.78344 36.45214 -17.54563 -1.766917e-10 6.556059e-11 17.35272 -7.444126 8.674522 5.249751 5.244585 -19.03002 -1.750779 -96.13437 29.69317 24.02257 -3.097404e-11 1.058395e-11 -13.11019 2.752037 17.14928 10.55488
0.2694626 103.4409 1.049767 0.8697914 -1.799839 -0.1575342 3.566048 -15.51598 9.66614 -7.756213e-10 37.71622 4.80014e-10 -6.404579 -16.1327 -4.595354 -6.771848 8.495609 -22.58165 6.689772e-10 5.7845 -1.324334e-09 7.934553 -17.81489 27.43407 -4.077186 -2.809641 4.43835 2.528407 9.472433 -7.735494 1.342601 22.3568 6.796388 3.275539 -23.6386 8.97887 6.559239 -20.1303 11.64404 85.4486 36.24096 -18.23919 -1.855216e-10 6.084948e-11 17.16632 -7.328779 8.813655 5.053758 5.091733 -19.05116 -1.955121 -95.80685 29.88302 23.79299 -1.886368e-11 7.055625e-12 -13.79329 2.729371 17.0113 10.7509
0.552358 103.4523 2.260267 0.7041 -1.376507 -0.01920144 3.747498 -17.86667 9.329795 -6.636623e-10 38.76723 4.334791e-10 -6.20772 -15.21899 -4.43087 -6.698998 9.939658 -22.5429 6.455937e-10 5.598529 -1.120167e-09 7.372495 -18.32951 26.11672 -3.861759 -2.745629 4.232787 2.550041 9.344367 -7.887736 1.291921 22.19495 6.941861 3.270822 -23.94229 9.122843 6.495682 -19.93168 11.59278 86.0235 35.99753 -18.93732 -1.952461e-10 2.733804e-11 16.84583 -7.315911 8.879346 4.935773 5.060675 -19.15809 -2.13573 -95.36123 29.93758 23.41436 -8.638854e-12 -8.131886e-12 -14.78442 2.912508 16.88844 10.70498
0.8410271 103.4725 3.736448 0.5105393 -0.7097675 0.2283625 4.009868 -20.32123 8.79054 -5.274633e-10 37.9211 3.338476e-10 -6.083706 -14.04157 -4.011922 -6.60461 11.22721 -22.34651 4.887796e-10 5.48603 -8.449037e-10 6.713701 -18.94069 24.74942 -3.592896 -2.674655 4.06223 2.594812 9.163931 -8.004147 1.241921 21.98057 7.142411 3.371554 -24.38691 9.251043 6.362177 -19.6931 11.52239 86.52434 35.74631 -19.64647 -1.971692e-10 -3.571532e-11 16.39232 -7.481847 8.87798 4.938507 5.193598 -19.34578 -2.267427 -94.89187 29.82842 22.89238 -1.756791e-12 -3.567013e-11 -16.07857 3.26979 16.74793 10.45619
1.119786 103.4103 5.512489 0.3366584 0.07701553 0.5283795 4.309279 -22.71931 8.121534 -4.030651e-10 35.19005 2.073779e-10 -6.008764 -12.80275 -3.41902 -6.528867 12.30562 -22.01635 2.191301e-10 5.540874 -5.450056e-10 6.092055 -19.64846 23.55139 -3.323728 -2.599802 3.948646 2.657587 8.961852 -8.082478 1.195537 21.74499 7.37569 3.561543 -24.87172 9.344786 6.173341 -19.40197 11.44149 86.85628 35.50012 -20.34356 -1.931937e-10 -1.188947e-10 15.79412 -7.77979 8.791574 5.000484 5.496375 -19.62757 -2.350564 -94.30295 29.58875 22.12173 -1.20792e-12 -7.033189e-11 -17.66574 3.776894 16.61429 9.989781
1.382025 103.2153 7.644862 0.1497372 0.9753537 0.8338612 4.635837 -24.8784 7.394135 -2.921633e-10 31.12612 7.299845e-11 -6.006504 -11.44132 -2.703041 -6.446815 13.13815 -21.56599 -1.236812e-10 5.817435 -2.240517e-10 5.434734 -20.30695 22.44085 -3.041087 -2.53153 3.877248 2.736674 8.73952 -8.120919 1.159881 21.46722 7.620432 3.81954 -25.39752 9.404969 5.963398 -19.07507 11.34559 87.00719 35.3015 -20.95494 -1.802265e-10 -2.144485e-10 15.11599 -8.17842 8.6689 5.147323 5.89394 -19.92412 -2.368323 -93.69494 29.23382 21.28725 -4.097667e-12 -1.104373e-10 -19.28682 4.338522 16.4381 9.439956
1.624214 102.8734 10.20817 -0.09158208 1.919563 1.122452 5.00567 -26.76861 6.697637 -1.989042e-10 26.46408 -4.88286e-11 -6.08744 -10.03095 -2.009872 -6.294257 13.83008 -20.99925 -4.787773e-10 6.414513 9.855676e-11 4.630505 -20.76055 21.25426 -2.720625 -2.46505 3.803156 2.837014 8.497683 -8.1458 1.146373 21.15209 7.828615 4.081425 -25.919 9.434621 5.748771 -18.7137 11.2282 87.09814 35.1476 -21.48883 -1.639977e-10 -3.073962e-10 14.40258 -8.603479 8.600077 5.361771 6.287642 -20.17828 -2.331448 -93.12868 28.80791 20.49119 -7.747121e-12 -1.492677e-10 -20.7337 4.855676 16.17708 8.940763
1.843536 102.4123 13.24536 -0.388397 2.742362 1.396886 5.396526 -28.29155 6.136401 -1.290781e-10 22.29769 -1.362612e-10 -6.238496 -8.813466 -1.524537 -6.044967 14.42844 -20.3673 -7.58017e-10 7.500888 3.728344e-10 3.639168 -20.86982 19.93393 -2.372554 -2.372127 3.688796 2.946536 8.246464 -8.172548 1.164085 20.87621 7.948859 4.267124 -26.34037 9.441911 5.554655 -18.31908 11.09669 87.29693 35.04121 -21.94718 -1.557011e-10 -3.743585e-10 13.70319 -8.956286 8.650216 5.590954 6.56447 -20.33813 -2.266046 -92.67873 28.4234 19.78815 -9.046481e-12 -1.764489e-10 -21.8094 5.230955 15.8409 8.619001
2.049959 101.9521 16.80983 -0.7822718 3.419249 1.684596 5.83581 -29.25995 5.796265 -4.327026e-11 19.62197 -1.831312e-10 -6.536727 -7.685482 -1.281262 -5.677901 14.87063 -19.69534 -8.881872e-10 9.474941 5.986497e-10 2.400034 -20.36475 18.31404 -1.964427 -2.265159 3.519745 3.061715 8.016532 -8.210788 1.201628 20.61312 7.959356 4.349576 -26.68775 9.41249 5.439648 -17.91778 10.96618 87.58871 35.04107 -22.28224 -1.487817e-10 -4.04505e-10 13.05938 -9.149899 8.865628 5.821259 6.586188 -20.33025 -2.187843 -92.39957 28.12507 19.42448 -8.09381e-14 -1.928357e-10 -22.22261 5.388509 15.40538 8.607091
2.255972 101.6543 20.87728 -1.233734 3.845125 2.013552 6.268164 -29.51865 5.674424 7.890678e-11 19.03093 -1.866678e-10 -7.051886 -6.719684 -1.291307 -5.236277 15.01893 -18.98385 -8.316703e-10 12.53177 7.580891e-10 1.102353 -19.13096 16.47529 -1.535161 -2.141516 3.305786 3.169096 7.866559 -8.27232 1.225028 20.37932 7.850758 4.309476 -26.90289 9.303284 5.438315 -17.52673 10.86531 87.85684 35.20856 -22.46165 -1.437455e-10 -3.924672e-10 12.4293 -9.132334 9.232107 6.001704 6.286447 -20.18215 -2.137231 -92.10138 27.93851 19.35984 2.226359e-11 -1.987011e-10 -21.94812 5.365624 14.90251 8.854556
2.476464 101.6383 25.45099 -1.70739 3.982693 2.37797 6.724641 -28.91404 5.730293 2.175302e-10 19.75477 -1.590074e-10 -7.656547 -6.021507 -1.507692 -4.724256 14.63332 -18.14797 -6.291624e-10 16.85784 8.313711e-10 -0.2331111 -17.22913 14.59031 -1.071357 -1.987326 3.125311 3.251604 7.81587 -8.316899 1.254532 20.21674 7.630251 4.167169 -26.97328 9.125104 5.489001 -17.19227 10.81452 88.18546 35.41001 -22.48162 -1.342855e-10 -3.430363e-10 11.90374 -9.059248 9.751954 6.169914 5.747393 -19.9397 -2.11745 -91.94959 27.7777 19.60037 5.300769e-11 -1.934535e-10 -21.14782 5.196 14.32948 9.30604
2.700426 101.9992 30.39784 -2.120798 3.782564 2.719883 7.238256 -27.43985 5.895235 3.450915e-10 20.81774 -1.063924e-10 -8.395493 -5.959707 -1.820442 -4.192808 13.423 -17.15064 -3.035224e-10 22.96044 7.680319e-10 -1.386182 -14.77048 12.89366 -0.5925063 -1.784583 3.071505 3.308659 7.905198 -8.326989 1.260577 20.15623 7.307556 3.953776 -26.86752 8.829468 5.556738 -16.9183 10.85515 88.33864 35.61333 -22.37256 -1.228777e-10 -2.64131e-10 11.40135 -8.857778 10.28239 6.176026 5.051542 -19.73846 -2.157703 -91.68931 27.63688 19.91754 8.667354e-11 -1.799588e-10 -20.20972 5.040107 13.81665 9.706447
2.911413 102.7527 35.58281 -2.342961 3.193097 2.947525 7.68579 -24.84092 6.042585 4.353152e-10 21.43446 -4.167514e-11 -9.050154 -6.558826 -2.139428 -3.730145 11.0145 -15.92671 9.992357e-11 30.64796 5.426515e-10 -2.2858 -12.06388 11.75166 -0.1817012 -1.487521 3.251862 3.289339 8.144822 -8.222985 1.262251 20.31195 6.952057 3.744098 -26.55062 8.459492 5.605843 -16.73014 11.0133 88.4065 35.77216 -22.0798 -1.013607e-10 -1.666628e-10 10.99522 -8.852513 10.78208 6.154886 4.359807 -19.6294 -2.240792 -91.52955 27.44863 20.17921 1.158012e-10 -1.599598e-10 -19.43205 4.934042 13.34931 10.00548
3.093167 103.8231 40.74413 -2.236782 2.270642 2.989239 7.82777 -21.04631 5.973274 4.790429e-10 21.32921 1.240039e-11 -9.501323 -7.891059 -2.239745 -3.444721 7.056496 -14.56609 4.991414e-10 38.42771 1.926949e-10 -2.678842 -9.607625 11.46816 0.01977676 -1.085898 3.736207 3.134695 8.506982 -7.936107 1.221952 20.69727 6.657592 3.604916 -26.00343 8.035002 5.613887 -16.72004 11.2876 87.99363 35.9308 -21.33023 -7.310466e-11 -8.045873e-11 10.82516 -9.229166 11.08766 6.212101 3.812085 -19.62708 -2.356854 -91.29243 27.20968 20.26094 1.338567e-10 -1.440193e-10 -19.0743 4.959419 12.99404 10.0625
3.241954 105.0791 45.76737 -1.855878 1.219547 2.832714 7.649848 -16.45449 5.657919 4.941979e-10 20.41637 3.766306e-11 -9.594294 -9.369683 -2.056344 -3.289556 2.034133 -13.13779 7.945855e-10 45.14335 -1.549296e-10 -2.75288 -7.675437 11.90302 0.007213117 -0.6164495 4.444908 2.845399 8.907166 -7.468995 1.169282 21.23305 6.487434 3.582197 -25.32651 7.636381 5.565682 -16.85515 11.61103 87.24169 36.0455 -20.14504 -3.233025e-11 -2.293505e-11 10.91738 -10.18285 11.24352 6.537758 3.495964 -19.66042 -2.460745 -91.1252 26.84748 20.1864 1.402858e-10 -1.371484e-10 -19.10013 5.06449 12.63604 9.975921
3.37606 106.34 50.57624 -1.276695 0.2146646 2.508415 7.138677 -11.42119 5.133848 4.929404e-10 19.06197 2.328596e-11 -9.348727 -10.81507 -1.569005 -3.205545 -3.648022 -11.78188 8.318517e-10 49.25645 -3.235844e-10 -2.489433 -6.427323 12.90521 -0.2333329 -0.1455023 5.278127 2.447331 9.275158 -6.874231 1.090592 21.80817 6.453482 3.654936 -24.59252 7.289428 5.467786 -17.19334 11.92908 86.09269 36.15555 -18.46418 1.131309e-11 -8.898549e-12 11.37844 -11.66076 11.26683 7.209266 3.409559 -19.66974 -2.521473 -91.00761 26.3764 20.08867 1.352646e-10 -1.428464e-10 -19.33441 5.1991 12.26031 9.812101
3.517381 107.4022 55.14819 -0.6372465 -0.6458217 2.060189 6.425174 -6.583942 4.528346 4.601897e-10 17.30131 -2.189376e-11 -8.864544 -12.25379 -0.9702471 -3.071155 -9.166538 -10.57437 5.353086e-10 49.92977 -2.28919e-10 -1.932237 -5.853619 14.20685 -0.6323457 0.245723 6.074735 2.022911 9.55598 -6.274873 0.9983337 22.29419 6.476262 3.73125 -23.81095 6.991424 5.283883 -17.71952 12.17371 84.65923 36.17132 -16.45889 3.940327e-11 -3.450583e-11 12.18393 -13.38658 11.23276 8.126298 3.513015 -19.65173 -2.540162 -90.80866 25.806 19.96932 1.177548e-10 -1.539569e-10 -19.59984 5.323335 11.88569 9.576578
3.726639 108.0473 59.64091 -0.08907631 -1.201764 1.556925 5.585021 -2.262391 3.937621 3.932576e-10 15.31186 -9.936212e-11 -8.058293 -13.59274 -0.4034683 -2.750397 -14.04133 -9.486648 -9.5058e-11 46.26766 1.381882e-10 -1.337141 -5.881003 15.49319 -1.083557 0.5114768 6.729187 1.621147 9.663836 -5.734601 0.9387116 22.58952 6.504467 3.733693 -23.0539 6.801979 4.978868 -18.49223 12.28106 83.26754 35.99943 -14.18928 4.622683e-11 -9.914464e-11 13.5561 -15.34641 11.3141 9.399357 3.760002 -19.49413 -2.473945 -90.85495 25.12311 20.13892 8.748524e-11 -1.650232e-10 -19.59604 5.255934 11.39212 9.529119
4.038585 108.1741 64.0447 0.3259261 -1.490883 1.054506 4.70131 1.330306 3.495428 3.078039e-10 13.74202 -1.847956e-10 -7.33374 -15.08433 0.01528017 -2.297331 -17.99705 -8.63133 -7.405594e-10 39.39662 4.910219e-10 -0.5217437 -6.193379 16.63228 -1.557509 0.616158 7.174514 1.315597 9.65699 -5.358275 0.8566302 22.64137 6.473114 3.623057 -22.332 6.62835 4.661491 -19.41867 12.27382 81.67334 35.83962 -11.83137 2.41575e-11 -1.843626e-10 15.19988 -16.98914 11.4453 10.68531 3.986911 -19.25829 -2.35556 -90.71009 24.50644 20.52425 5.259521e-11 -1.745034e-10 -19.21119 5.056792 10.93987 9.571667
4.483068 107.7735 68.48659 0.5521578 -1.520774 0.6055643 3.886743 4.09229 3.23038 2.268717e-10 12.73434 -2.682262e-10 -6.646036 -16.35112 0.2262599 -1.718393 -20.82399 -7.921658 -1.280898e-09 30.85582 7.495893e-10 0.1793148 -6.570929 17.41344 -1.945718 0.5941574 7.404034 1.111104 9.55253 -5.13822 0.8001616 22.48628 6.38481 3.420709 -21.72358 6.514663 4.347122 -20.37812 12.16378 80.31046 35.63722 -9.653648 -8.805192e-12 -2.735011e-10 16.97687 -18.3779 11.71695 11.98146 4.149928 -18.92222 -2.195916 -90.66668 23.93683 21.18351 1.887739e-11 -1.799035e-10 -18.43248 4.684659 10.43555 9.833772
